<svg width="21" height="20" viewBox="0 0 21 20" fill="none" xmlns="http://www.w3.org/2000/svg">
<path fill-rule="evenodd" clip-rule="evenodd" d="M10.5001 1.66663C6.59175 1.66663 3.41675 4.84163 3.41675 8.74996C3.41675 12.6583 6.59175 15.8333 10.5001 15.8333H10.9167V18.3333C14.9667 16.3833 17.5834 12.5 17.5834 8.74996C17.5834 4.84163 14.4084 1.66663 10.5001 1.66663ZM9.66675 13.75V12.0833H11.3334V13.75H9.66675ZM11.6417 9.80829C11.6501 9.79163 11.6584 9.77496 11.6667 9.76663C11.8935 9.434 12.2095 9.157 12.5298 8.87617C13.2687 8.22831 14.0309 7.5601 13.7751 6.14163C13.5334 4.73329 12.4084 3.57496 11.0001 3.36663C9.28341 3.11663 7.76675 4.17496 7.30841 5.69163C7.16675 6.17496 7.53341 6.66663 8.03341 6.66663H8.20008C8.54175 6.66663 8.81675 6.42496 8.93341 6.12496C9.20008 5.38329 9.98341 4.87496 10.8501 5.05829C11.6501 5.22496 12.2334 6.01663 12.1584 6.83329C12.102 7.46958 11.6474 7.82149 11.143 8.212C10.8282 8.45569 10.4941 8.7144 10.2251 9.06663L10.2167 9.05829C10.2023 9.07274 10.1906 9.09274 10.1785 9.11349C10.1697 9.12866 10.1606 9.14422 10.1501 9.15829C10.1376 9.17912 10.123 9.19996 10.1084 9.22079C10.0938 9.24162 10.0792 9.26246 10.0667 9.28329C9.99175 9.39996 9.93341 9.51663 9.88341 9.64996C9.87925 9.66663 9.87091 9.67913 9.86258 9.69163C9.85425 9.70413 9.84591 9.71663 9.84175 9.73329C9.83342 9.74163 9.83342 9.74996 9.83342 9.75829C9.73341 10.0583 9.66675 10.4166 9.66675 10.8416H11.3417C11.3417 10.6333 11.3667 10.45 11.4251 10.275C11.4417 10.2166 11.4667 10.1583 11.4917 10.1L11.4918 10.0999C11.5001 10.0666 11.5084 10.0333 11.5251 10.0083C11.5584 9.94163 11.6001 9.87496 11.6417 9.80829Z" fill="white"/>
</svg>
