<svg width="16" height="16" viewBox="0 0 16 16" fill="none" xmlns="http://www.w3.org/2000/svg">
<mask id="path-1-inside-1_4599_789" fill="white">
<path fill-rule="evenodd" clip-rule="evenodd" d="M12.3327 2.33338C9.93945 -0.0598562 6.05925 -0.0598562 3.66602 2.33338C1.27278 4.72661 1.27279 8.60681 3.66602 11L7.99935 15.3334L12.3327 11C14.7259 8.60681 14.7259 4.72661 12.3327 2.33338ZM7.99931 9.33333C9.47207 9.33333 10.666 8.13943 10.666 6.66667C10.666 5.19391 9.47207 4 7.99931 4C6.52655 4 5.33264 5.19391 5.33264 6.66667C5.33264 8.13943 6.52655 9.33333 7.99931 9.33333Z"/>
</mask>
<path d="M3.66602 2.33338L2.95891 1.62627L3.66602 2.33338ZM3.66602 11L2.95891 11.7072L3.66602 11ZM7.99935 15.3334L7.29224 16.0405L7.99935 16.7476L8.70646 16.0405L7.99935 15.3334ZM4.37312 3.04048C6.37583 1.03777 9.62287 1.03777 11.6256 3.04048L13.0398 1.62627C10.256 -1.15749 5.74267 -1.15749 2.95891 1.62627L4.37312 3.04048ZM4.37313 10.2929C2.37042 8.29023 2.37042 5.04319 4.37312 3.04048L2.95891 1.62627C0.175153 4.41003 0.175155 8.9234 2.95891 11.7072L4.37313 10.2929ZM8.70646 14.6263L4.37313 10.2929L2.95891 11.7072L7.29224 16.0405L8.70646 14.6263ZM11.6256 10.2929L7.29224 14.6263L8.70646 16.0405L13.0398 11.7071L11.6256 10.2929ZM11.6256 3.04048C13.6283 5.04319 13.6283 8.29023 11.6256 10.2929L13.0398 11.7071C15.8236 8.92339 15.8235 4.41003 13.0398 1.62627L11.6256 3.04048ZM9.66598 6.66667C9.66598 7.58714 8.91978 8.33333 7.99931 8.33333V10.3333C10.0244 10.3333 11.666 8.69171 11.666 6.66667H9.66598ZM7.99931 5C8.91978 5 9.66598 5.74619 9.66598 6.66667H11.666C11.666 4.64162 10.0244 3 7.99931 3V5ZM6.33264 6.66667C6.33264 5.74619 7.07883 5 7.99931 5V3C5.97426 3 4.33264 4.64162 4.33264 6.66667H6.33264ZM7.99931 8.33333C7.07883 8.33333 6.33264 7.58714 6.33264 6.66667H4.33264C4.33264 8.69171 5.97426 10.3333 7.99931 10.3333V8.33333Z" fill="black" mask="url(#path-1-inside-1_4599_789)"/>
</svg>
