<svg width="28" height="24" viewBox="0 0 28 24" fill="none" xmlns="http://www.w3.org/2000/svg">
<path d="M26.5864 7.69719L26.588 7.7135L26.5905 7.72967C26.5953 7.75931 26.6021 7.81233 26.6085 7.88977C26.6558 8.46094 26.6077 9.25135 26.3798 10.2363C25.9383 12.1421 24.8233 13.8284 22.8619 15.7565L14.3694 22.735L14.3694 22.735C14.1414 22.9223 13.7927 22.9215 13.5657 22.7334L13.5657 22.7334L5.12097 15.7318C3.38041 14.2429 2.15601 12.3304 1.63361 10.2436C1.3856 9.25279 1.33863 8.46378 1.39827 7.89348C1.40433 7.83551 1.41071 7.78884 1.4165 7.75332L1.41904 7.73775L1.42059 7.72204C1.79037 3.98117 4.64676 1.125 8.30493 1.125C10.4332 1.125 12.3069 2.06723 13.5538 3.62103L13.9378 4.09968L14.329 3.62678C15.607 2.08167 17.5623 1.125 19.7065 1.125C23.3795 1.125 26.2405 4.00323 26.5864 7.69719Z" stroke="black"/>
</svg>
