<svg width="28" height="24" viewBox="0 0 28 24" fill="none" xmlns="http://www.w3.org/2000/svg">
<path d="M27.1068 7.84849C27.0996 7.76217 27.0915 7.696 27.0842 7.65057C26.717 3.72901 23.6661 0.625 19.7065 0.625C17.4126 0.625 15.3163 1.64863 13.9437 3.3081C12.6031 1.63747 10.5867 0.625 8.30493 0.625C4.35887 0.625 1.31494 3.70799 0.923017 7.67285C0.915483 7.71906 0.907897 7.77531 0.900978 7.84148C0.833993 8.48205 0.889703 9.33082 1.14857 10.365C1.69861 12.5622 2.98481 14.5635 4.79891 16.1143L13.2466 23.1183C13.658 23.4594 14.2738 23.4607 14.6868 23.1213L23.1965 16.1287C25.2021 14.1603 26.3942 12.3896 26.8669 10.3492C27.104 9.32449 27.1592 8.48127 27.1068 7.84849Z" fill="#F25F94"/>
</svg>
